{"title":"Jupiter Ascending 2015 720p HDTS NEW AUDIO x264 Pimp4003","uid":11776050,"size":2941205565,"categoryP":"video","categoryS":"movies","magnet":"?xt=urn:btih:1255b8df6e28d7eb490bc20196ef556c49505039&amp;dn=Jupiter+Ascending+2015+720p+HDTS+NEW+AUDIO+x264+Pimp4003&amp;tr=udp%3A%2F%2Ftracker.openbittorrent.com%3A80&amp;tr=udp%3A%2F%2Fopen.demonii.com%3A1337&amp;tr=udp%3A%2F%2Ftracker.coppersurfer.tk%3A6969&amp;tr=udp%3A%2F%2Fexodus.desync.com%3A6969","seeders":8,"leechers":1,"uploader":"shawnmurthy","files":1,"time":1427297796,"description":"WEBRIP COMING WITH STUDIO AUDIO....JUST WAITING ON MY SOURCE....ENJOY...PIMP4003\n\nSCREENSHOTS GO HERE...http://pimp4003DOTnet/torrents.php?id=1255b8df6e28d7eb490bc20196ef556c49505039\n\n[color=blue][b]I am looking for: Pre-Retail Supplier Unreleased DVD/BluRay/Web-Dls/R5/CAM/TS If you have something to offer, please contact ME: &lt;a class=&quot;__cf_email__&quot; href=&quot;/cdn-cgi/l/email-protection&quot; data-cfemail=&quot;19697074692d29292a59716c6a7174787075377a767437&quot;&gt;[email&amp;#160;protected]&lt;/a&gt;&lt;script cf-hash='f9e31' type=&quot;text/javascript&quot;&gt;\n/* &lt;![CDATA[ */!function(){try{var t=&quot;currentScript&quot;in document?document.currentScript:function(){for(var t=document.getElementsByTagName(&quot;script&quot;),e=t.length;e--;)if(t[e].getAttribute(&quot;cf-hash&quot;))return t[e]}();if(t&amp;&amp;t.previousSibling){var e,r,n,i,c=t.previousSibling,a=c.getAttribute(&quot;data-cfemail&quot;);if(a){for(e=&quot;&quot;,r=parseInt(a.substr(0,2),16),n=2;a.length-n;n+=2)i=parseInt(a.substr(n,2),16)^r,e+=String.fromCharCode(i);e=document.createTextNode(e),c.parentNode.replaceChild(e,c)}}}catch(u){}}();/* ]]&gt; */&lt;/script&gt; WE CAN WORK OUT A GREAT DEAL THAT WORKS OUT FOR EVERY PARTY. I ALSO NEED NEW CAMMERS...EMAIL ME[/b][/color]\n &lt;a href=&quot;\nhttp://i.imgur.com/J3ny9bJ.jpg&quot; rel=&quot;nofollow&quot; target=&quot;_NEW&quot;&gt;\nhttp://i.imgur.com/J3ny9bJ.jpg&lt;/a&gt;\n &lt;a href=&quot;\nhttp://i.imgur.com/SpsuXOR.png&quot; rel=&quot;nofollow&quot; target=&quot;_NEW&quot;&gt;\nhttp://i.imgur.com/SpsuXOR.png&lt;/a&gt;\n\nPIMP THE ONE AND ONLY PIMPSTER.....PRESENTS\n\nfacebookDOTcom/OfficialPimp4003\n &lt;a href=&quot;\nhttp://i.imgur.com/DTHBNIi.jpg&quot; rel=&quot;nofollow&quot; target=&quot;_NEW&quot;&gt;\nhttp://i.imgur.com/DTHBNIi.jpg&lt;/a&gt;\n\nJupiter Ascending 2015 720p HDTS NEW AUDIO x264 Pimp4003\n &lt;a href=&quot;\nhttp://www.imdb.com/title/tt1617661/&quot; rel=&quot;nofollow&quot; target=&quot;_NEW&quot;&gt;\nhttp://www.imdb.com/title/tt1617661/&lt;/a&gt;\n\nIn a bright and colorful future, a young destitute caretaker gets targeted by the ruthless son of a powerful family who lives on a planet in need of a new heir, so she travels with a genetically engineered warrior to the planet in order to stop his tyrant reign.\n\nDirectors: Andy Wachowski (as The Wachowskis) , Lana Wachowski (as The Wachowskis)\n\nWriters: Andy Wachowski, Lana Wachowski\n\nStars: Channing Tatum, Mila Kunis, Eddie Redmayne |See full cast and crew Â»\n\nVideo\nID                                       : 1\nFormat                                   : MPEG-4 Visual\nFormat profile                           : Simple@L3\nFormat settings, BVOP                    : No\nFormat settings, QPel                    : No\nFormat settings, GMC                     : No warppoints\nFormat settings, Matrix                  : Default (H.263)\nCodec ID                                 : 20\nDuration                                 : 2h 6mn\nBit rate                                 : 2 977 Kbps\nWidth                                    : 1 280 pixels\nHeight                                   : 536 pixels\nDisplay aspect ratio                     : 2.40:1\nFrame rate mode                          : Variable\nFrame rate                               : 59.940 fps\nMinimum frame rate                       : 59.916 fps\nMaximum frame rate                       : 60.157 fps\nColor space                              : YUV\nChroma subsampling                       : 4:2:0\nBit depth                                : 8 bits\nScan type                                : Progressive\nCompression mode                         : Lossy\nBits/(Pixel*Frame)                       : 0.072\nStream size                              : 2.62 GiB (96%)\nWriting library                          : ZJMedia MPEG Encoder\n\nAudio\nID                                       : 2\nFormat                                   : AAC\nFormat/Info                              : Advanced Audio Codec\nFormat profile                           : LC\nCodec ID                                 : 40\nDuration                                 : 2h 6mn\nBit rate mode                            : Variable\nBit rate                                 : 128 Kbps\nChannel(s)                               : 2 channels\nChannel positions                        : Front: L R\nSampling rate                            : 48.0 KHz\nCompression mode                         : Lossy\nStream size                              : 115 MiB (4%)","torrent":{"xt":"urn:btih:1255b8df6e28d7eb490bc20196ef556c49505039","amp;dn":"Jupiter+Ascending+2015+720p+HDTS+NEW+AUDIO+x264+Pimp4003","amp;tr":["udp%3A%2F%2Ftracker.openbittorrent.com%3A80","udp%3A%2F%2Fopen.demonii.com%3A1337","udp%3A%2F%2Ftracker.coppersurfer.tk%3A6969","udp%3A%2F%2Fexodus.desync.com%3A6969"],"infoHash":"1255b8df6e28d7eb490bc20196ef556c49505039","infoHashBuffer":{"type":"Buffer","data":[18,85,184,223,110,40,215,235,73,11,194,1,150,239,85,108,73,80,80,57]},"announce":[],"urlList":[]}}